<?xml version="1.0" standalone="no"?>
<!DOCTYPE svg PUBLIC "-//W3C//DTD SVG 20010904//EN"
 "http://www.w3.org/TR/2001/REC-SVG-20010904/DTD/svg10.dtd">
<svg version="1.0" xmlns="http://www.w3.org/2000/svg"
 width="642.000000pt" height="630.000000pt" viewBox="0 0 642.000000 630.000000"
 preserveAspectRatio="xMidYMid meet">

<g transform="translate(0.000000,630.000000) scale(0.100000,-0.100000)"
fill="#000000" stroke="none">
<path fill="white" d="M4750 6128 c-23 -24 -58 -64 -78 -90 l-36 -47 -50 47 c-77 73 -129
104 -166 100 -31 -3 -33 -6 -72 -113 -70 -196 -89 -273 -94 -379 l-4 -100 -42
-14 c-100 -34 -156 -92 -235 -244 -53 -103 -129 -180 -249 -252 -94 -57 -104
-68 -154 -171 -47 -98 -64 -118 -161 -192 -117 -89 -174 -165 -200 -267 -9
-36 -26 -61 -83 -119 -107 -108 -166 -237 -166 -364 0 -50 -3 -56 -81 -154
-152 -190 -225 -254 -507 -441 -218 -144 -294 -188 -500 -289 -134 -65 -282
-144 -330 -175 -161 -105 -339 -314 -422 -499 -35 -78 -80 -240 -80 -290 0
-42 -12 -51 -103 -74 -274 -71 -505 -236 -691 -495 -31 -43 -56 -82 -56 -86 0
-4 26 -1 57 6 31 7 58 12 59 11 1 -1 -20 -39 -46 -84 -26 -45 -62 -126 -80
-180 -28 -84 -33 -116 -37 -223 -11 -294 89 -444 347 -521 66 -20 100 -23 290
-25 l215 -2 113 -36 c118 -37 259 -56 358 -48 34 2 74 -3 119 -17 89 -28 233
-36 375 -22 63 7 116 14 118 16 3 2 -7 18 -22 35 -28 34 -35 66 -12 57 38 -15
114 -18 188 -7 79 11 87 10 162 -14 96 -32 116 -34 436 -46 161 -6 325 -19
444 -35 104 -14 206 -25 225 -25 29 0 57 15 136 73 95 69 101 76 126 137 14
35 32 66 40 68 50 15 81 39 113 88 20 29 36 60 36 67 0 7 -24 42 -54 78 -61
75 -104 98 -230 124 -59 12 -103 14 -178 9 -97 -7 -389 11 -416 26 -9 4 11 29
66 81 138 130 351 270 522 344 54 24 125 61 157 83 58 39 173 148 173 164 0
26 23 -1 51 -59 18 -38 63 -111 100 -163 92 -130 128 -200 194 -375 82 -216
198 -503 226 -555 13 -25 67 -86 119 -136 88 -82 103 -92 190 -126 128 -48
232 -71 292 -63 53 8 168 61 210 97 l27 23 -19 83 c-10 45 -21 89 -24 97 -4
12 4 15 40 15 56 0 76 10 137 68 37 37 47 53 47 79 0 39 -41 126 -79 166 -14
16 -105 74 -203 129 l-176 99 -11 62 c-23 123 -34 357 -25 507 l9 145 41 -38
c23 -20 44 -37 46 -37 11 0 109 159 142 230 69 152 116 345 116 481 0 71 5 78
42 58 12 -7 24 -7 29 -2 14 14 76 297 99 453 24 157 36 447 22 538 l-9 62 35
-6 35 -7 -6 119 c-2 66 -12 146 -21 179 -22 82 -84 208 -146 300 -47 69 -130
260 -130 298 0 21 127 37 370 47 304 13 304 13 373 140 23 41 63 98 89 127 53
59 78 102 78 135 0 42 -104 128 -235 194 -66 33 -208 106 -315 163 -193 102
-196 104 -310 216 -114 112 -197 173 -318 234 -35 18 -64 37 -66 44 -2 7 -11
68 -20 137 -13 106 -22 137 -55 205 -21 44 -53 99 -70 123 -31 42 -84 82 -108
82 -7 0 -31 -19 -53 -42z m111 -180 c54 -84 74 -154 73 -258 0 -47 -4 -97 -7
-113 -6 -21 -4 -29 10 -34 70 -24 184 -85 280 -148 99 -67 120 -86 182 -168
81 -109 106 -127 266 -202 129 -60 333 -163 351 -177 6 -4 9 -19 6 -33 -2 -14
2 -46 9 -71 12 -41 20 -50 58 -67 l45 -20 -60 -30 c-51 -25 -73 -30 -165 -34
-104 -5 -108 -4 -310 52 -185 51 -212 56 -286 53 -107 -4 -138 -24 -138 -89
l0 -44 40 0 c22 1 84 9 137 18 l98 18 177 -37 c165 -33 185 -35 286 -29 108 7
109 7 98 -13 -7 -12 -25 -23 -44 -27 -111 -18 -217 -23 -384 -18 l-189 6 -120
-37 c-65 -21 -123 -41 -127 -46 -11 -10 145 -319 221 -438 72 -114 118 -213
136 -289 8 -35 14 -63 13 -63 -1 0 -24 11 -51 25 -58 30 -91 33 -82 9 19 -50
58 -201 73 -284 21 -118 23 -400 4 -514 -12 -77 -48 -222 -57 -238 -3 -4 -25
7 -49 24 -25 18 -47 30 -49 27 -2 -2 -9 -67 -15 -144 -17 -209 -68 -477 -112
-580 -12 -30 -12 -29 -20 35 -5 36 -20 103 -34 150 -44 145 -44 202 0 375 80
319 35 453 -183 538 -108 43 -154 47 -176 15 -9 -12 -16 -35 -16 -50 0 -26 -3
-28 -27 -22 -95 22 -241 157 -327 303 -69 118 -69 118 1 125 63 7 247 -6 328
-24 195 -42 376 -139 502 -268 71 -73 72 -72 53 46 -32 194 -124 304 -353 423
-126 65 -197 119 -197 150 0 32 78 61 248 95 l23 5 -25 32 c-37 49 -74 129
-107 229 -16 49 -29 94 -29 100 0 5 19 -7 43 -27 43 -37 141 -89 189 -101 l28
-6 -25 54 c-29 64 -45 139 -45 213 0 48 -3 56 -34 83 -32 27 -101 55 -202 81
-34 9 -45 19 -67 59 -33 61 -77 212 -77 266 0 33 6 48 28 68 33 32 144 103
231 149 l64 34 -104 11 c-111 13 -205 42 -234 74 -14 16 -16 34 -13 114 2 81
6 99 27 127 14 19 24 45 23 63 0 17 -38 106 -84 199 -94 192 -87 191 -106 5
-7 -65 -7 -110 -1 -134 13 -46 8 -51 -17 -16 -32 43 -44 89 -44 170 0 82 47
302 64 302 6 0 38 -29 72 -63 76 -78 130 -185 178 -354 l34 -117 73 -36 c57
-29 96 -40 169 -49 52 -7 106 -15 120 -17 23 -5 22 -2 -13 29 -41 37 -136 88
-219 116 l-53 18 -26 79 c-14 43 -45 120 -68 170 l-43 92 22 48 c28 64 62 114
78 114 7 0 30 -28 53 -62z m-614 -601 c-39 -66 -77 -189 -77 -249 -1 -68 -22
-115 -98 -208 -71 -89 -201 -215 -231 -225 -12 -3 -19 -11 -16 -16 14 -21 154
-1 214 30 12 7 25 10 28 8 2 -3 7 -32 10 -64 8 -89 -11 -125 -88 -163 -111
-56 -188 -146 -217 -253 -10 -35 -9 -38 6 -32 59 25 135 36 212 33 70 -3 97
-9 153 -35 113 -54 216 -168 217 -241 0 -22 -1 -22 -42 8 -51 38 -103 41 -112
8 -25 -96 16 -195 131 -310 l57 -58 -45 0 c-159 0 -311 95 -437 273 -30 43
-66 86 -80 95 -38 25 -131 21 -220 -11 l-72 -25 -12 21 c-22 41 -22 166 0 235
l20 63 -21 -7 c-30 -9 -75 -40 -119 -83 l-38 -35 0 60 c0 112 30 165 122 215
l63 34 -77 3 c-46 2 -78 7 -78 13 0 18 60 70 156 136 79 55 95 71 138 142 26
44 65 98 85 120 l38 41 -35 6 c-33 6 -34 8 -16 21 10 8 55 32 100 53 118 57
166 104 205 199 17 43 48 103 69 132 35 52 117 125 127 115 3 -3 -6 -25 -20
-49z m-449 -1916 c48 -24 151 -57 224 -71 l57 -11 68 -97 c135 -194 260 -358
330 -433 l34 -36 -80 -26 c-112 -37 -216 -88 -324 -159 -75 -50 -160 -130
-452 -422 -635 -636 -783 -752 -1051 -822 -121 -32 -337 -43 -465 -24 -186 27
-362 97 -487 194 -184 145 -343 464 -377 756 -5 50 -3 59 24 100 16 25 54 69
85 99 l54 54 7 -59 c35 -312 119 -545 248 -694 84 -96 239 -190 373 -224 218
-56 473 -32 669 64 124 61 232 156 605 529 475 476 530 526 684 629 l133 88
-104 140 c-85 114 -268 380 -297 432 -10 16 -2 15 42 -7z m-854 -176 c30 -159
35 -140 -61 -209 -28 -20 -54 -33 -57 -28 -3 5 -8 28 -12 51 -4 23 -10 44 -15
47 -5 3 -50 -25 -100 -62 -90 -66 -91 -67 -84 -102 19 -104 201 -650 224 -675
4 -4 22 4 41 18 19 14 37 25 40 25 3 0 13 -19 22 -42 9 -24 23 -59 32 -80 l16
-36 -135 -109 c-75 -59 -140 -110 -145 -111 -6 -2 -26 31 -46 74 l-35 78 41
35 41 36 -56 135 c-31 74 -89 233 -130 352 l-73 218 -101 -80 c-111 -88 -105
-76 -76 -160 l12 -35 -74 -59 c-43 -34 -78 -55 -83 -50 -5 5 -30 63 -55 128
-39 99 -45 122 -33 130 7 6 82 66 165 133 250 201 699 530 709 520 1 -1 14
-65 28 -142z m161 -266 c5 -20 3 -34 -5 -39 -17 -11 58 -263 77 -256 15 6 39
-43 26 -54 -4 -3 -25 -18 -45 -33 -36 -26 -37 -27 -48 -8 -12 24 -13 51 -1 51
5 0 -5 43 -22 95 -19 57 -34 90 -39 82 -4 -7 -8 -63 -8 -125 l0 -114 -86 78
-85 77 24 -64 c45 -119 56 -141 68 -133 13 8 29 -13 29 -38 0 -9 -20 -31 -45
-48 l-45 -31 -12 26 c-8 18 -8 29 -1 36 16 16 -84 260 -103 252 -9 -3 -18 5
-24 22 -6 15 -9 29 -8 30 2 1 23 15 48 32 l45 31 65 -58 c35 -32 68 -56 72
-54 4 3 8 42 9 87 1 45 4 93 8 106 5 20 74 79 93 81 3 0 9 -14 13 -31z m1751
-489 c-17 -265 -50 -440 -112 -596 -40 -101 -46 -127 -46 -188 1 -68 72 -481
144 -831 l33 -160 127 -80 c189 -120 195 -126 220 -218 26 -97 18 -120 -44
-138 -63 -19 -123 -15 -211 11 -62 18 -83 30 -105 57 -15 19 -43 49 -62 66
-133 123 -103 63 -275 566 -85 250 -156 455 -157 456 -2 1 -28 13 -59 27 l-56
25 -7 109 c-4 60 -12 138 -18 174 -7 49 -7 81 2 123 11 55 65 152 84 152 5 0
16 -20 24 -44 17 -51 90 -131 119 -131 18 0 21 8 26 83 3 51 19 127 42 202 24
79 38 150 42 208 6 86 7 88 42 116 57 45 196 108 245 110 5 1 6 -41 2 -99z
m-2460 -64 c-5 -20 7 -36 111 -149 34 -37 48 -45 58 -37 10 8 15 4 23 -19 10
-28 8 -32 -34 -67 -25 -20 -49 -33 -54 -28 -14 16 -22 54 -11 54 8 0 7 7 -1
20 -18 28 -28 25 -81 -16 -40 -31 -47 -42 -47 -71 0 -23 4 -32 11 -27 13 7 29
-13 29 -37 0 -9 -20 -33 -45 -53 l-45 -37 -12 26 c-9 19 -9 28 0 37 8 8 12 62
12 170 0 136 -2 157 -15 152 -8 -4 -15 -2 -15 2 0 5 -3 18 -6 30 -4 17 6 31
53 67 56 45 58 46 66 24 4 -12 6 -30 3 -41z m-1216 -613 c0 -10 13 -46 30 -81
l29 -62 -52 -26 c-64 -33 -120 -76 -148 -115 l-21 -31 33 -34 c19 -20 66 -51
105 -70 66 -33 84 -37 224 -50 196 -17 238 -36 368 -158 52 -47 111 -95 132
-106 26 -13 37 -25 34 -35 -8 -19 -84 -55 -118 -55 -27 0 -24 -4 45 -73 41
-40 94 -94 117 -120 44 -47 97 -82 265 -172 49 -26 87 -49 85 -51 -15 -15
-226 -37 -359 -38 l-157 -1 10 -25 c5 -14 19 -35 30 -47 l21 -23 -47 0 c-121
0 -298 60 -363 122 l-32 31 -7 -29 c-5 -18 -1 -45 9 -73 l16 -44 -64 6 c-58 6
-117 23 -245 72 -39 15 -62 16 -170 9 -232 -16 -347 -1 -467 58 -132 65 -178
154 -176 343 2 198 62 354 183 476 36 36 79 75 95 87 l30 21 -57 1 c-32 0 -58
4 -58 10 0 19 131 117 217 162 103 53 210 92 331 118 113 24 132 24 132 3z
m1960 -515 c-52 -104 -136 -215 -204 -269 -28 -23 -105 -68 -171 -100 -93 -45
-124 -66 -138 -90 -9 -17 -15 -35 -12 -39 9 -14 160 -69 248 -90 100 -24 196
-25 348 -4 108 16 121 16 191 0 93 -21 153 -59 201 -127 l36 -52 -24 -31 c-32
-42 -74 -72 -121 -86 -32 -10 -73 -8 -219 9 -99 11 -279 30 -400 41 -301 27
-425 42 -425 49 0 3 20 19 45 35 l46 28 -101 59 c-181 104 -400 263 -400 290
0 8 73 66 95 75 6 3 38 -23 72 -55 93 -91 133 -93 133 -5 0 33 8 52 41 93 22
28 50 53 62 55 12 2 67 11 122 19 201 31 392 110 528 218 42 34 77 67 78 73 0
8 2 7 5 -1 3 -6 -14 -49 -36 -95z"/>
<path d="M5198 5170 c-20 -3 -56 -20 -79 -35 -40 -28 -40 -30 -18 -36 13 -3
58 -17 99 -29 95 -28 114 -25 118 18 3 25 -3 39 -27 62 -31 31 -34 32 -93 20z"/>
<path d="M2360 2292 c0 -58 6 -63 38 -29 l22 23 -30 29 -30 29 0 -52z"/>
<path d="M702 1420 c-81 -54 -164 -146 -201 -222 -31 -64 -55 -148 -42 -148 4
0 20 14 37 31 33 36 111 89 131 89 6 0 -12 -34 -42 -75 -152 -212 -118 -350
91 -370 32 -3 72 -8 89 -11 l29 -4 -26 27 c-14 16 -34 41 -44 57 l-18 29 61
-5 c45 -3 78 -13 120 -36 163 -90 220 -113 279 -115 33 -1 71 2 86 6 l27 7
-24 36 c-23 35 -31 54 -21 54 3 0 47 -15 98 -32 87 -31 101 -33 233 -33 181 0
191 4 128 51 -69 52 -154 136 -235 233 -99 116 -168 143 -273 106 -37 -13 -42
-13 -80 10 -131 77 -267 210 -306 300 -13 30 -27 55 -30 55 -4 0 -34 -18 -67
-40z"/>
</g>
</svg>
